<?xml version="1.0" encoding="utf-8"?>
<!-- Generator: Adobe Illustrator 25.2.1, SVG Export Plug-In . SVG Version: 6.00 Build 0)  -->
<svg version="1.1" id="Layer_1" xmlns="http://www.w3.org/2000/svg" x="0px" y="0px"
     viewBox="0 0 91 84" style="enable-background:new 0 0 91 84;" xml:space="preserve">
<style type="text/css">
	.st0{fill:#078803;}
</style>
<desc>Created with Fabric.js 1.7.22</desc>
<g id="icon">
	<path class="st0" d="M90.5,52.8h-90V5.9c0-3,2.4-5.4,5.4-5.4h79.2c3,0,5.4,2.4,5.4,5.4V52.8z M2.5,50.8h86V5.9
		c0-1.9-1.5-3.4-3.4-3.4H5.9C4,2.5,2.5,4,2.5,5.9V50.8z"/>
	<path class="st0" d="M84.3,47.6H6.7c-0.6,0-1-0.4-1-1V9c0-1.8,1.5-3.3,3.3-3.3h73c1.8,0,3.3,1.5,3.3,3.3v37.6
		C85.3,47.2,84.8,47.6,84.3,47.6z M7.7,45.6h75.6V9c0-0.7-0.6-1.3-1.3-1.3H9C8.3,7.7,7.7,8.3,7.7,9V45.6z"/>
	<path class="st0" d="M85.1,65.3H5.9c-3,0-5.4-2.4-5.4-5.4v-9h90v9C90.5,62.8,88.1,65.3,85.1,65.3z M2.5,52.8v7
		c0,1.9,1.5,3.4,3.4,3.4h79.2c1.9,0,3.4-1.5,3.4-3.4v-7H2.5z"/>
	<circle class="st0" cx="45.5" cy="58.1" r="1.5"/>
	<path class="st0" d="M59.3,77.6H31.7c-0.4,0-0.8-0.3-1-0.7s0-0.9,0.4-1.1c3.8-2.8,6.3-7.1,7-11.7c0.1-0.5,0.5-0.9,1-0.9H52
		c0.5,0,0.9,0.4,1,0.9c0.6,4.6,3.2,8.9,7,11.7c0.3,0.3,0.5,0.7,0.4,1.1S59.8,77.6,59.3,77.6z M34.4,75.6h22.2
		c-2.8-2.8-4.8-6.4-5.5-10.4H39.9C39.2,69.2,37.2,72.8,34.4,75.6z"/>
	<path class="st0" d="M61.6,82.8H29.4c-2,0-3.6-1.6-3.6-3.6s1.6-3.6,3.6-3.6h32.1c2,0,3.6,1.6,3.6,3.6S63.5,82.8,61.6,82.8z
		 M29.4,77.6c-0.9,0-1.6,0.7-1.6,1.6s0.7,1.6,1.6,1.6h32.1c0.9,0,1.6-0.7,1.6-1.6s-0.7-1.6-1.6-1.6H29.4z"/>
</g>
</svg>
